<svg width="16" height="18" viewBox="0 0 16 18" fill="none" xmlns="http://www.w3.org/2000/svg">
<path d="M0 3.00091C0 1.1225 1.70662 -0.293874 3.55287 0.0522957L13.5529 1.9273C14.9718 2.19334 16 3.43227 16 4.87591V14.7714C16 16.6498 14.2934 18.0661 12.4471 17.72L2.44713 15.845C1.02822 15.5789 0 14.34 0 12.8964V3.00091Z" fill="#4F46E5"/>
<path d="M4 10.3867H5V9.38672H6V8.38672H7V7.38672H8V6.38672H9V5.38672H4V3.38672H12V6.38672H11V7.38672H10V8.38672H9V9.38672H8V10.3867H7V11.3867H12V13.3867H4V10.3867Z" fill="white"/>
</svg>
