<svg width="438" height="161" viewBox="0 0 438 161" fill="none" xmlns="http://www.w3.org/2000/svg">
<path d="M80.5 0C124.959 0 161 36.0411 161 80.5C161 124.959 124.959 161 80.5 161C36.0411 161 0 124.959 0 80.5C0 36.0411 36.0411 0 80.5 0ZM48.3086 40V56.0996H88.5586V64.1504H80.5088V72.2002H72.459V80.25H64.4082V88.2998H56.3584V96.3496H48.3086V120.5H112.709V104.4H72.459V96.3496H80.5088V88.2998H88.5586V80.25H96.6084V72.2002H104.658V64.1504H112.709V40H48.3086Z" fill="white"/>
<path d="M337.375 60.5488L305.71 130.812H287.792L298.306 107.929L277 60.4951H295.545L307.293 88.7998L319.258 60.375L337.375 60.5488ZM405.628 56C415.159 56 422.84 59.1514 428.669 65.4531C434.577 71.676 437.531 79.2377 437.531 88.1387C437.531 97.0399 434.577 104.602 428.669 110.825C422.84 117.048 415.159 120.16 405.628 120.16C396.176 120.16 388.496 117.048 382.588 110.825C376.759 104.602 373.844 97.0399 373.844 88.1387C373.844 79.2376 376.759 71.676 382.588 65.4531C388.496 59.1514 396.175 56.0001 405.628 56ZM271.503 43.4365L220.646 105.803H272V120H201V106.563L251.856 44.1973H201.497V30H271.503V43.4365ZM361 120H347V30H361V120ZM405.628 68.4062C400.508 68.4063 396.254 70.2184 392.867 73.8418C389.559 77.4652 387.904 82.2309 387.904 88.1387C387.904 93.9678 389.559 98.6948 392.867 102.318C396.254 105.942 400.508 107.753 405.628 107.753C410.827 107.753 415.081 105.942 418.39 102.318C421.777 98.6948 423.47 93.9678 423.47 88.1387C423.47 82.231 421.777 77.4652 418.39 73.8418C415.081 70.2183 410.827 68.4062 405.628 68.4062Z" fill="white"/>
</svg>
